<?xml version="1.0" encoding="iso-8859-1"?>
<!-- Uploaded to: SVG Repo, www.svgrepo.com, Generator: SVG Repo Mixer Tools -->
<svg height="800px" width="800px" version="1.1" id="Layer_1" xmlns="http://www.w3.org/2000/svg" xmlns:xlink="http://www.w3.org/1999/xlink" 
	 viewBox="0 0 448.134 448.134" xml:space="preserve">
<g transform="translate(0 -1020.36)" shape-rendering="auto" image-rendering="auto" color-rendering="auto" color-interpolation="sRGB">
	<path style="fill:#5A3392;" d="M7.284,1020.447c-4.123,0.4-7.255,3.89-7.219,8.032c0.064,88.704-0.064,177.636-0.064,266.249
		c0.048,10.666,16.02,10.666,16.063,0c0.096-31.25,0.096,92.75,0,63.783c0.096-4.527-3.596-8.227-8.125-8.156
		c-4.456,0-8.025,3.703-7.938,8.156c0.08,33.949,0.064,67.906,0.064,101.906c-0.016,4.441,3.589,8.049,8.031,8.031h432.063
		c4.393,0,7.923-3.637,7.906-8.031c-0.186-88.609,0.285-177.48-0.064-265.969c0.032-4.504-3.653-8.15-8.156-8.063
		c-0.229,0-0.459,0.012-0.688,0c-4.072,0.465-7.135,3.932-7.094,8.031c0.096,25.064,0.096-90.936,0-63.781
		c0.096,12.846,16.096,12.846,15.937,0c0.144-33.914,0.064-68.158,0.064-102.188c0.016-4.394-3.512-7.98-7.906-8.032H8.096
		c-0.27-0.015-0.542-0.015-0.813,0L7.284,1020.447z"/>
	<path style="fill:#EBFEFF;" d="M16.142,1036.397h415.984V1452.5H16.142L16.142,1036.397L16.142,1036.397z"/>
	<path style="fill:#5A3392;" d="M39.291,1052.46c-4.117,0.412-7.241,3.895-7.205,8.031v367.912c-0.017,4.418,3.552,8.014,7.97,8.031
		c0.02,0,0.041,0,0.061,0H408.15c4.396-0.049,7.93-3.635,7.913-8.031v-367.912c0.017-4.396-3.517-7.982-7.913-8.031H40.118
		c-0.276-0.014-0.553-0.014-0.828,0H39.291z"/>
	<path style="fill:#FB9761;" d="M48.149,1068.404h351.968v352.088H48.149C48.149,1420.492,48.149,1068.404,48.149,1068.404z"/>
	<path style="fill:#5A3392;" d="M39.291,1052.46c-4.117,0.412-7.241,3.895-7.205,8.031v32.008c0.048,4.396,3.634,7.932,8.031,7.914
		h32.008c4.397,0.018,7.984-3.518,8.031-7.914v-32.008c0.017-4.418-3.552-8.014-7.97-8.031c-0.02,0-0.041,0-0.061,0H40.118
		c-0.276-0.014-0.553-0.014-0.828,0H39.291z"/>
	<path style="fill:#EE746C;" d="M48.149,1068.404h15.945v16.064H48.149V1068.404z"/>
	<path style="fill:#5A3392;" d="M88.071,1100.414c-4.396,0.049-7.93,3.635-7.913,8.031v32.008c-0.017,4.396,3.517,7.982,7.913,8.031
		h32.008c4.419,0.018,8.014-3.551,8.031-7.971c0-0.02,0-0.041,0-0.061v-32.008c0.017-4.418-3.552-8.014-7.97-8.031
		c-0.02,0-0.041,0-0.061,0H88.071z"/>
	<path style="fill:#EE746C;" d="M96.102,1116.476h15.945v15.943H96.102V1116.476z"/>
	<path style="fill:#5A3392;" d="M135.315,1052.46c-4.117,0.412-7.241,3.895-7.205,8.031v32.008c0.048,4.396,3.634,7.932,8.031,7.914
		h32.008c4.351-0.047,7.867-3.563,7.913-7.914v-32.008c0.017-4.396-3.517-7.982-7.913-8.031h-32.008
		c-0.276-0.014-0.553-0.014-0.828,0H135.315z"/>
	<path style="fill:#EE746C;" d="M144.055,1068.404h16.063v16.064h-16.063V1068.404z"/>
	<path style="fill:#5A3392;" d="M184.094,1100.414c-4.419-0.018-8.014,3.551-8.031,7.971c0,0.02,0,0.041,0,0.061v32.008
		c-0.017,4.418,3.552,8.014,7.97,8.031c0.02,0,0.041,0,0.061,0h32.008c4.419,0.018,8.014-3.551,8.031-7.971c0-0.02,0-0.041,0-0.061
		v-32.008c0.017-4.418-3.552-8.014-7.97-8.031c-0.02,0-0.041,0-0.061,0H184.094L184.094,1100.414z"/>
	<path style="fill:#EE746C;" d="M192.126,1116.476h15.945v15.943h-15.945V1116.476z"/>
	<path style="fill:#5A3392;" d="M231.339,1052.46c-4.117,0.412-7.241,3.895-7.205,8.031v32.008c0.047,4.352,3.562,7.867,7.913,7.914
		h32.007c4.397,0.018,7.984-3.518,8.032-7.914v-32.008c0.017-4.418-3.552-8.014-7.97-8.031c-0.021,0-0.041,0-0.062,0h-32.007
		c-0.236-0.01-0.472-0.01-0.708,0H231.339z"/>
	<path style="fill:#EE746C;" d="M240.079,1068.404h16.063v16.064h-16.063V1068.404z"/>
	<path style="fill:#5A3392;" d="M280.118,1100.414c-4.419-0.018-8.014,3.551-8.031,7.971c0,0.02,0,0.041,0,0.061v32.008
		c-0.017,4.418,3.552,8.014,7.97,8.031c0.02,0,0.041,0,0.061,0h32.008c4.419,0.018,8.014-3.551,8.031-7.971c0-0.02,0-0.041,0-0.061
		v-32.008c0.017-4.418-3.552-8.014-7.97-8.031c-0.02,0-0.041,0-0.061,0H280.118z"/>
	<path style="fill:#EE746C;" d="M288.149,1116.476h15.945v15.943h-15.945V1116.476z"/>
	<path style="fill:#5A3392;" d="M327.362,1052.46c-4.117,0.412-7.241,3.895-7.205,8.031v32.008c0.047,4.352,3.562,7.867,7.913,7.914
		h32.008c4.397,0.018,7.984-3.518,8.031-7.914v-32.008c0.017-4.418-3.552-8.014-7.97-8.031c-0.02,0-0.041,0-0.061,0h-32.008
		c-0.236-0.01-0.472-0.01-0.708,0H327.362z"/>
	<path style="fill:#EE746C;" d="M336.102,1068.404h15.945v16.064h-15.945V1068.404z"/>
	<path style="fill:#5A3392;" d="M376.142,1100.414c-4.419-0.018-8.014,3.551-8.031,7.971c0,0.02,0,0.041,0,0.061v32.008
		c-0.017,4.418,3.552,8.014,7.97,8.031c0.02,0,0.041,0,0.061,0h32.008c4.396-0.049,7.93-3.635,7.913-8.031v-32.008
		c0.017-4.396-3.517-7.982-7.913-8.031H376.142z"/>
	<path style="fill:#EE746C;" d="M384.055,1116.476h16.063v15.943h-16.063V1116.476z"/>
	<path style="fill:#5A3392;" d="M39.291,1148.484c-4.072,0.406-7.181,3.822-7.205,7.914v32.006c-0.017,4.418,3.552,8.014,7.97,8.031
		c0.02,0,0.041,0,0.061,0h32.008c4.419,0.018,8.014-3.551,8.031-7.971c0-0.02,0-0.041,0-0.061v-32.006
		c-0.048-4.396-3.634-7.932-8.031-7.914H40.118c-0.276-0.014-0.553-0.014-0.828,0H39.291z"/>
	<path style="fill:#EE746C;" d="M48.149,1164.429h15.945v16.063H48.149V1164.429z"/>
	<path style="fill:#5A3392;" d="M87.362,1196.437c-4.117,0.412-7.241,3.895-7.205,8.031v32.008
		c-0.017,4.396,3.517,7.982,7.913,8.031h32.008c4.419,0.018,8.014-3.551,8.031-7.971c0-0.02,0-0.041,0-0.061v-32.008
		c0.017-4.418-3.552-8.014-7.97-8.031c-0.02,0-0.041,0-0.061,0H88.071c-0.236-0.01-0.472-0.01-0.708,0H87.362z"/>
	<path style="fill:#EE746C;" d="M96.102,1212.5h15.945v15.945H96.102V1212.5z"/>
	<path style="fill:#5A3392;" d="M135.315,1148.484c-4.072,0.406-7.181,3.822-7.205,7.914v32.006
		c-0.017,4.418,3.552,8.014,7.97,8.031c0.02,0,0.041,0,0.061,0h32.008c4.396-0.049,7.93-3.635,7.913-8.031v-32.006
		c-0.047-4.352-3.562-7.867-7.913-7.914h-32.008c-0.276-0.014-0.553-0.014-0.828,0H135.315z"/>
	<path style="fill:#EE746C;" d="M144.055,1164.429h16.063v16.063h-16.063V1164.429z"/>
	<path style="fill:#5A3392;" d="M183.268,1196.437c-4.117,0.412-7.241,3.895-7.205,8.031v32.008
		c-0.017,4.418,3.552,8.014,7.97,8.031c0.02,0,0.041,0,0.061,0h32.008c4.419,0.018,8.014-3.551,8.031-7.971c0-0.02,0-0.041,0-0.061
		v-32.008c0.017-4.418-3.552-8.014-7.97-8.031c-0.02,0-0.041,0-0.061,0h-32.008c-0.276-0.014-0.553-0.014-0.828,0H183.268z"/>
	<path style="fill:#EE746C;" d="M192.126,1212.5h15.945v15.945h-15.945V1212.5z"/>
	<path style="fill:#5A3392;" d="M231.339,1148.484c-4.072,0.406-7.181,3.822-7.205,7.914v32.006
		c-0.017,4.396,3.517,7.982,7.913,8.031h32.007c4.419,0.018,8.015-3.551,8.032-7.969c0-0.021,0-0.041,0-0.063v-32.006
		c-0.048-4.396-3.635-7.932-8.032-7.914h-32.007c-0.236-0.01-0.472-0.01-0.708,0H231.339z"/>
	<path style="fill:#EE746C;" d="M240.079,1164.429h16.063v16.063h-16.063V1164.429z"/>
	<path style="fill:#5A3392;" d="M279.291,1196.437c-4.117,0.412-7.241,3.895-7.205,8.031v32.008
		c-0.017,4.418,3.552,8.014,7.97,8.031c0.02,0,0.041,0,0.061,0h32.008c4.419,0.018,8.014-3.551,8.031-7.971c0-0.02,0-0.041,0-0.061
		v-32.008c0.017-4.418-3.552-8.014-7.97-8.031c-0.02,0-0.041,0-0.061,0h-32.008c-0.276-0.014-0.553-0.014-0.828,0H279.291z"/>
	<path style="fill:#EE746C;" d="M288.149,1212.5h15.945v15.945h-15.945V1212.5z"/>
	<path style="fill:#5A3392;" d="M327.362,1148.484c-4.072,0.406-7.181,3.822-7.205,7.914v32.006
		c-0.017,4.396,3.517,7.982,7.913,8.031h32.008c4.419,0.018,8.014-3.551,8.031-7.971c0-0.02,0-0.041,0-0.061v-32.006
		c-0.048-4.396-3.634-7.932-8.031-7.914h-32.008c-0.236-0.01-0.472-0.01-0.708,0H327.362z"/>
	<path style="fill:#EE746C;" d="M336.102,1164.429h15.945v16.063h-15.945V1164.429z"/>
	<path style="fill:#5A3392;" d="M375.315,1196.437c-4.117,0.412-7.241,3.895-7.205,8.031v32.008
		c-0.017,4.418,3.552,8.014,7.97,8.031c0.02,0,0.041,0,0.061,0h32.008c4.396-0.049,7.93-3.635,7.913-8.031v-32.008
		c0.017-4.396-3.517-7.982-7.913-8.031h-32.008c-0.276-0.014-0.553-0.014-0.828,0H375.315z"/>
	<path style="fill:#EE746C;" d="M384.055,1212.5h16.063v15.945h-16.063V1212.5z"/>
	<path style="fill:#5A3392;" d="M39.291,1244.507c-4.072,0.406-7.181,3.822-7.205,7.914v32.008c-0.017,4.418,3.552,8.014,7.97,8.031
		c0.02,0,0.041,0,0.061,0h32.008c4.419,0.018,8.014-3.551,8.031-7.971c0-0.02,0-0.041,0-0.061v-32.008
		c-0.048-4.396-3.634-7.932-8.031-7.914H40.118c-0.276-0.014-0.553-0.014-0.828,0H39.291z"/>
	<path style="fill:#EE746C;" d="M48.149,1260.453h15.945v15.943H48.149V1260.453z"/>
	<path style="fill:#5A3392;" d="M87.362,1292.46c-4.117,0.412-7.241,3.895-7.205,8.031v32.008c0.047,4.352,3.562,7.867,7.913,7.914
		h32.008c4.397,0.018,7.984-3.518,8.031-7.914v-32.008c0.017-4.418-3.552-8.014-7.97-8.031c-0.02,0-0.041,0-0.061,0H88.071
		c-0.236-0.01-0.472-0.01-0.708,0H87.362z"/>
	<path style="fill:#EE746C;" d="M96.102,1308.404h15.945v16.064H96.102V1308.404z"/>
	<path style="fill:#5A3392;" d="M135.315,1244.507c-4.072,0.406-7.181,3.822-7.205,7.914v32.008
		c-0.017,4.418,3.552,8.014,7.97,8.031c0.02,0,0.041,0,0.061,0h32.008c4.396-0.049,7.93-3.635,7.913-8.031v-32.008
		c-0.047-4.352-3.562-7.867-7.913-7.914h-32.008c-0.276-0.014-0.553-0.014-0.828,0H135.315z"/>
	<path style="fill:#EE746C;" d="M144.055,1260.453h16.063v15.943h-16.063V1260.453z"/>
	<path style="fill:#5A3392;" d="M183.268,1292.46c-4.117,0.412-7.241,3.895-7.205,8.031v32.008c0.048,4.396,3.634,7.932,8.031,7.914
		h32.008c4.397,0.018,7.984-3.518,8.031-7.914v-32.008c0.017-4.418-3.552-8.014-7.97-8.031c-0.02,0-0.041,0-0.061,0h-32.008
		c-0.276-0.014-0.553-0.014-0.828,0H183.268z"/>
	<path style="fill:#EE746C;" d="M192.126,1308.404h15.945v16.064h-15.945V1308.404z"/>
	<path style="fill:#5A3392;" d="M231.339,1244.507c-4.072,0.406-7.181,3.822-7.205,7.914v32.008
		c-0.017,4.396,3.517,7.982,7.913,8.031h32.007c4.419,0.018,8.015-3.551,8.032-7.969c0-0.021,0-0.041,0-0.063v-32.008
		c-0.048-4.396-3.635-7.932-8.032-7.914h-32.007c-0.236-0.01-0.472-0.01-0.708,0H231.339z"/>
	<path style="fill:#EE746C;" d="M240.079,1260.453h16.063v15.943h-16.063V1260.453z"/>
	<path style="fill:#5A3392;" d="M279.291,1292.46c-4.117,0.412-7.241,3.895-7.205,8.031v32.008c0.048,4.396,3.634,7.932,8.031,7.914
		h32.008c4.397,0.018,7.984-3.518,8.031-7.914v-32.008c0.017-4.418-3.552-8.014-7.97-8.031c-0.02,0-0.041,0-0.061,0h-32.008
		c-0.276-0.014-0.553-0.014-0.828,0H279.291z"/>
	<path style="fill:#EE746C;" d="M288.149,1308.404h15.945v16.064h-15.945V1308.404z"/>
	<path style="fill:#5A3392;" d="M327.362,1244.507c-4.072,0.406-7.181,3.822-7.205,7.914v32.008
		c-0.017,4.396,3.517,7.982,7.913,8.031h32.008c4.419,0.018,8.014-3.551,8.031-7.971c0-0.02,0-0.041,0-0.061v-32.008
		c-0.048-4.396-3.634-7.932-8.031-7.914h-32.008c-0.236-0.01-0.472-0.01-0.708,0H327.362z"/>
	<path style="fill:#EE746C;" d="M336.102,1260.453h15.945v15.943h-15.945V1260.453z"/>
	<path style="fill:#5A3392;" d="M375.315,1292.46c-4.117,0.412-7.241,3.895-7.205,8.031v32.008c0.048,4.396,3.634,7.932,8.031,7.914
		h32.008c4.351-0.047,7.867-3.563,7.913-7.914v-32.008c0.017-4.396-3.517-7.982-7.913-8.031h-32.008
		c-0.276-0.014-0.553-0.014-0.828,0H375.315z"/>
	<path style="fill:#EE746C;" d="M384.055,1308.404h16.063v16.064h-16.063V1308.404z"/>
	<path style="fill:#5A3392;" d="M40.118,1340.414c-4.419-0.018-8.014,3.551-8.031,7.971c0,0.02,0,0.041,0,0.061v32.008
		c-0.017,4.418,3.552,8.014,7.97,8.031c0.02,0,0.041,0,0.061,0h32.008c4.419,0.018,8.014-3.551,8.031-7.971c0-0.02,0-0.041,0-0.061
		v-32.008c0.017-4.418-3.552-8.014-7.97-8.031c-0.02,0-0.041,0-0.061,0C72.126,1340.414,40.118,1340.414,40.118,1340.414z"/>
	<path style="fill:#EE746C;" d="M48.149,1356.476h15.945v15.943H48.149V1356.476z"/>
	<path style="fill:#5A3392;" d="M87.362,1388.484c-4.072,0.406-7.181,3.822-7.205,7.914v32.006
		c-0.017,4.396,3.517,7.982,7.913,8.031h32.008c4.419,0.018,8.014-3.551,8.031-7.971c0-0.02,0-0.041,0-0.061v-32.006
		c-0.048-4.396-3.634-7.932-8.031-7.914H88.071c-0.236-0.01-0.472-0.01-0.708,0H87.362z"/>
	<path style="fill:#EE746C;" d="M96.102,1404.429h15.945v16.064H96.102V1404.429z"/>
	<path style="fill:#5A3392;" d="M136.142,1340.414c-4.419-0.018-8.014,3.551-8.031,7.971c0,0.02,0,0.041,0,0.061v32.008
		c-0.017,4.418,3.552,8.014,7.97,8.031c0.02,0,0.041,0,0.061,0h32.008c4.396-0.049,7.93-3.635,7.913-8.031v-32.008
		c0.017-4.396-3.517-7.982-7.913-8.031H136.142z"/>
	<path style="fill:#EE746C;" d="M144.055,1356.476h16.063v15.943h-16.063V1356.476z"/>
	<path style="fill:#5A3392;" d="M183.268,1388.484c-4.072,0.406-7.181,3.822-7.205,7.914v32.006
		c-0.017,4.418,3.552,8.014,7.97,8.031c0.02,0,0.041,0,0.061,0h32.008c4.419,0.018,8.014-3.551,8.031-7.971c0-0.02,0-0.041,0-0.061
		v-32.006c-0.048-4.396-3.634-7.932-8.031-7.914h-32.008c-0.276-0.014-0.553-0.014-0.828,0H183.268z"/>
	<path style="fill:#EE746C;" d="M192.126,1404.429h15.945v16.064h-15.945V1404.429z"/>
	<path style="fill:#5A3392;" d="M232.047,1340.414c-4.396,0.049-7.93,3.635-7.913,8.031v32.008
		c-0.017,4.396,3.517,7.982,7.913,8.031h32.007c4.419,0.018,8.015-3.551,8.032-7.969c0-0.021,0-0.041,0-0.063v-32.008
		c0.017-4.418-3.552-8.014-7.97-8.031c-0.021,0-0.041,0-0.062,0H232.047z"/>
	<path style="fill:#EE746C;" d="M240.079,1356.476h16.063v15.943h-16.063V1356.476z"/>
	<path style="fill:#5A3392;" d="M279.291,1388.484c-4.072,0.406-7.181,3.822-7.205,7.914v32.006
		c-0.017,4.418,3.552,8.014,7.97,8.031c0.02,0,0.041,0,0.061,0h32.008c4.419,0.018,8.014-3.551,8.031-7.971c0-0.02,0-0.041,0-0.061
		v-32.006c-0.048-4.396-3.634-7.932-8.031-7.914h-32.008c-0.276-0.014-0.553-0.014-0.828,0H279.291z"/>
	<path style="fill:#EE746C;" d="M288.149,1404.429h15.945v16.064h-15.945V1404.429z"/>
	<path style="fill:#5A3392;" d="M328.071,1340.414c-4.396,0.049-7.93,3.635-7.913,8.031v32.008
		c-0.017,4.396,3.517,7.982,7.913,8.031h32.008c4.419,0.018,8.014-3.551,8.031-7.971c0-0.02,0-0.041,0-0.061v-32.008
		c0.017-4.418-3.552-8.014-7.97-8.031c-0.02,0-0.041,0-0.061,0H328.071z"/>
	<path style="fill:#EE746C;" d="M336.102,1356.476h15.945v15.943h-15.945V1356.476z"/>
	<path style="fill:#5A3392;" d="M375.315,1388.484c-4.072,0.406-7.181,3.822-7.205,7.914v32.006
		c-0.017,4.418,3.552,8.014,7.97,8.031c0.02,0,0.041,0,0.061,0h32.008c4.396-0.049,7.93-3.635,7.913-8.031v-32.006
		c-0.047-4.352-3.562-7.867-7.913-7.914h-32.008c-0.276-0.014-0.553-0.014-0.828,0H375.315z"/>
	<path style="fill:#EE746C;" d="M384.055,1404.429h16.063v16.064h-16.063V1404.429z"/>
	<g>
		<path style="fill:#5A3392;" d="M439.151,1148.509c-4.116,0.473-7.191,4.008-7.087,8.15v11.928
			c-0.372,4.402,2.896,8.273,7.299,8.646c4.403,0.371,8.274-2.896,8.646-7.299c0.038-0.449,0.038-0.898,0-1.348v-11.928
			c0.108-4.418-3.385-8.086-7.802-8.193C439.854,1148.457,439.501,1148.472,439.151,1148.509z"/>
		<path style="fill:#5A3392;" d="M7.93,1312.447c-4.418,0.047-7.962,3.668-7.914,8.086c0,0.021,0.001,0.043,0.001,0.064v12.047
			c0,4.436,3.596,8.031,8.031,8.031s8.031-3.596,8.031-8.031v-12.047c0.083-4.418-3.43-8.066-7.848-8.15
			C8.131,1312.445,8.031,1312.445,7.93,1312.447z"/>
	</g>
</g>
</svg>